<svg id="visual" viewBox="0 0 900 600" width="900" height="600" xmlns="http://www.w3.org/2000/svg" xmlns:xlink="http://www.w3.org/1999/xlink" version="1.1"><rect x="0" y="0" width="900" height="600" fill="#0F0716"></rect><path d="M0 306L25 301.3C50 296.7 100 287.3 150 274.3C200 261.3 250 244.7 300 247.3C350 250 400 272 450 278.8C500 285.7 550 277.3 600 270C650 262.7 700 256.3 750 257.2C800 258 850 266 875 270L900 274L900 0L875 0C850 0 800 0 750 0C700 0 650 0 600 0C550 0 500 0 450 0C400 0 350 0 300 0C250 0 200 0 150 0C100 0 50 0 25 0L0 0Z" fill="#ef473a"></path><path d="M0 280L25 267.2C50 254.3 100 228.7 150 221C200 213.3 250 223.7 300 231C350 238.3 400 242.7 450 234.7C500 226.7 550 206.3 600 202C650 197.7 700 209.3 750 228.2C800 247 850 273 875 286L900 299L900 0L875 0C850 0 800 0 750 0C700 0 650 0 600 0C550 0 500 0 450 0C400 0 350 0 300 0C250 0 200 0 150 0C100 0 50 0 25 0L0 0Z" fill="#e8423b"></path><path d="M0 188L25 187.2C50 186.3 100 184.7 150 188.2C200 191.7 250 200.3 300 200.8C350 201.3 400 193.7 450 194.7C500 195.7 550 205.3 600 199.8C650 194.3 700 173.7 750 171C800 168.3 850 183.7 875 191.3L900 199L900 0L875 0C850 0 800 0 750 0C700 0 650 0 600 0C550 0 500 0 450 0C400 0 350 0 300 0C250 0 200 0 150 0C100 0 50 0 25 0L0 0Z" fill="#e13d3d"></path><path d="M0 174L25 174.2C50 174.3 100 174.7 150 172.5C200 170.3 250 165.7 300 157C350 148.3 400 135.7 450 139.3C500 143 550 163 600 165.3C650 167.7 700 152.3 750 139.7C800 127 850 117 875 112L900 107L900 0L875 0C850 0 800 0 750 0C700 0 650 0 600 0C550 0 500 0 450 0C400 0 350 0 300 0C250 0 200 0 150 0C100 0 50 0 25 0L0 0Z" fill="#d9373d"></path><path d="M0 94L25 100.5C50 107 100 120 150 126.3C200 132.7 250 132.3 300 132.3C350 132.3 400 132.7 450 133.7C500 134.7 550 136.3 600 126.5C650 116.7 700 95.3 750 89.2C800 83 850 92 875 96.5L900 101L900 0L875 0C850 0 800 0 750 0C700 0 650 0 600 0C550 0 500 0 450 0C400 0 350 0 300 0C250 0 200 0 150 0C100 0 50 0 25 0L0 0Z" fill="#d2323e"></path><path d="M0 78L25 77.7C50 77.3 100 76.7 150 72.8C200 69 250 62 300 57.5C350 53 400 51 450 48.7C500 46.3 550 43.7 600 45.8C650 48 700 55 750 62C800 69 850 76 875 79.5L900 83L900 0L875 0C850 0 800 0 750 0C700 0 650 0 600 0C550 0 500 0 450 0C400 0 350 0 300 0C250 0 200 0 150 0C100 0 50 0 25 0L0 0Z" fill="#cb2d3e"></path></svg>