<svg id="visual" viewBox="0 0 900 600" width="900" height="600" xmlns="http://www.w3.org/2000/svg" xmlns:xlink="http://www.w3.org/1999/xlink" version="1.1"><rect x="0" y="0" width="900" height="600" fill="#0F0716"></rect><path d="M0 314L30 304.3C60 294.7 120 275.3 180 269.3C240 263.3 300 270.7 360 278.3C420 286 480 294 540 279.7C600 265.3 660 228.7 720 222.3C780 216 840 240 870 252L900 264L900 0L870 0C840 0 780 0 720 0C660 0 600 0 540 0C480 0 420 0 360 0C300 0 240 0 180 0C120 0 60 0 30 0L0 0Z" fill="#ea384d"></path><path d="M0 232L30 236.5C60 241 120 250 180 245.8C240 241.7 300 224.3 360 227.3C420 230.3 480 253.7 540 250.5C600 247.3 660 217.7 720 211.2C780 204.7 840 221.3 870 229.7L900 238L900 0L870 0C840 0 780 0 720 0C660 0 600 0 540 0C480 0 420 0 360 0C300 0 240 0 180 0C120 0 60 0 30 0L0 0Z" fill="#e73348"></path><path d="M0 243L30 230.5C60 218 120 193 180 190.7C240 188.3 300 208.7 360 218C420 227.3 480 225.7 540 217.5C600 209.3 660 194.7 720 180.5C780 166.3 840 152.7 870 145.8L900 139L900 0L870 0C840 0 780 0 720 0C660 0 600 0 540 0C480 0 420 0 360 0C300 0 240 0 180 0C120 0 60 0 30 0L0 0Z" fill="#e42f42"></path><path d="M0 127L30 127.3C60 127.7 120 128.3 180 136C240 143.7 300 158.3 360 157.5C420 156.7 480 140.3 540 135.7C600 131 660 138 720 140.7C780 143.3 840 141.7 870 140.8L900 140L900 0L870 0C840 0 780 0 720 0C660 0 600 0 540 0C480 0 420 0 360 0C300 0 240 0 180 0C120 0 60 0 30 0L0 0Z" fill="#e12a3d"></path><path d="M0 125L30 130.7C60 136.3 120 147.7 180 144.3C240 141 300 123 360 114.5C420 106 480 107 540 116.8C600 126.7 660 145.3 720 153.2C780 161 840 158 870 156.5L900 155L900 0L870 0C840 0 780 0 720 0C660 0 600 0 540 0C480 0 420 0 360 0C300 0 240 0 180 0C120 0 60 0 30 0L0 0Z" fill="#dd2437"></path><path d="M0 129L30 124.7C60 120.3 120 111.7 180 101.7C240 91.7 300 80.3 360 82.8C420 85.3 480 101.7 540 106.5C600 111.3 660 104.7 720 98.3C780 92 840 86 870 83L900 80L900 0L870 0C840 0 780 0 720 0C660 0 600 0 540 0C480 0 420 0 360 0C300 0 240 0 180 0C120 0 60 0 30 0L0 0Z" fill="#da1e32"></path><path d="M0 48L30 50.2C60 52.3 120 56.7 180 57.8C240 59 300 57 360 55.2C420 53.3 480 51.7 540 50.8C600 50 660 50 720 53.5C780 57 840 64 870 67.5L900 71L900 0L870 0C840 0 780 0 720 0C660 0 600 0 540 0C480 0 420 0 360 0C300 0 240 0 180 0C120 0 60 0 30 0L0 0Z" fill="#d7182d"></path><path d="M0 32L30 35.3C60 38.7 120 45.3 180 46C240 46.7 300 41.3 360 38.2C420 35 480 34 540 36C600 38 660 43 720 44.2C780 45.3 840 42.7 870 41.3L900 40L900 0L870 0C840 0 780 0 720 0C660 0 600 0 540 0C480 0 420 0 360 0C300 0 240 0 180 0C120 0 60 0 30 0L0 0Z" fill="#d31027"></path></svg>