<svg id="visual" viewBox="0 0 900 450" width="900" height="450" xmlns="http://www.w3.org/2000/svg" xmlns:xlink="http://www.w3.org/1999/xlink" version="1.1"><rect x="0" y="0" width="900" height="450" fill="#0F0716"></rect><path d="M0 265L18.8 267.2C37.7 269.3 75.3 273.7 112.8 275.2C150.3 276.7 187.7 275.3 225.2 269.3C262.7 263.3 300.3 252.7 337.8 249.7C375.3 246.7 412.7 251.3 450.2 254.7C487.7 258 525.3 260 562.8 260.8C600.3 261.7 637.7 261.3 675.2 262.5C712.7 263.7 750.3 266.3 787.8 271.3C825.3 276.3 862.7 283.7 881.3 287.3L900 291L900 0L881.3 0C862.7 0 825.3 0 787.8 0C750.3 0 712.7 0 675.2 0C637.7 0 600.3 0 562.8 0C525.3 0 487.7 0 450.2 0C412.7 0 375.3 0 337.8 0C300.3 0 262.7 0 225.2 0C187.7 0 150.3 0 112.8 0C75.3 0 37.7 0 18.8 0L0 0Z" fill="#243b55"></path><path d="M0 262L18.8 253.3C37.7 244.7 75.3 227.3 112.8 222.5C150.3 217.7 187.7 225.3 225.2 226.7C262.7 228 300.3 223 337.8 226.5C375.3 230 412.7 242 450.2 244C487.7 246 525.3 238 562.8 237.5C600.3 237 637.7 244 675.2 244.5C712.7 245 750.3 239 787.8 233.7C825.3 228.3 862.7 223.7 881.3 221.3L900 219L900 0L881.3 0C862.7 0 825.3 0 787.8 0C750.3 0 712.7 0 675.2 0C637.7 0 600.3 0 562.8 0C525.3 0 487.7 0 450.2 0C412.7 0 375.3 0 337.8 0C300.3 0 262.7 0 225.2 0C187.7 0 150.3 0 112.8 0C75.3 0 37.7 0 18.8 0L0 0Z" fill="#21364f"></path><path d="M0 176L18.8 175.2C37.7 174.3 75.3 172.7 112.8 180.8C150.3 189 187.7 207 225.2 211.2C262.7 215.3 300.3 205.7 337.8 204.5C375.3 203.3 412.7 210.7 450.2 215C487.7 219.3 525.3 220.7 562.8 220.7C600.3 220.7 637.7 219.3 675.2 214.3C712.7 209.3 750.3 200.7 787.8 198.5C825.3 196.3 862.7 200.7 881.3 202.8L900 205L900 0L881.3 0C862.7 0 825.3 0 787.8 0C750.3 0 712.7 0 675.2 0C637.7 0 600.3 0 562.8 0C525.3 0 487.7 0 450.2 0C412.7 0 375.3 0 337.8 0C300.3 0 262.7 0 225.2 0C187.7 0 150.3 0 112.8 0C75.3 0 37.7 0 18.8 0L0 0Z" fill="#1f3148"></path><path d="M0 161L18.8 162.8C37.7 164.7 75.3 168.3 112.8 168.5C150.3 168.7 187.7 165.3 225.2 159.2C262.7 153 300.3 144 337.8 146.7C375.3 149.3 412.7 163.7 450.2 169.2C487.7 174.7 525.3 171.3 562.8 167.3C600.3 163.3 637.7 158.7 675.2 154.8C712.7 151 750.3 148 787.8 147.2C825.3 146.3 862.7 147.7 881.3 148.3L900 149L900 0L881.3 0C862.7 0 825.3 0 787.8 0C750.3 0 712.7 0 675.2 0C637.7 0 600.3 0 562.8 0C525.3 0 487.7 0 450.2 0C412.7 0 375.3 0 337.8 0C300.3 0 262.7 0 225.2 0C187.7 0 150.3 0 112.8 0C75.3 0 37.7 0 18.8 0L0 0Z" fill="#1c2c42"></path><path d="M0 118L18.8 116.8C37.7 115.7 75.3 113.3 112.8 116.3C150.3 119.3 187.7 127.7 225.2 128.8C262.7 130 300.3 124 337.8 124.8C375.3 125.7 412.7 133.3 450.2 130C487.7 126.7 525.3 112.3 562.8 106.8C600.3 101.3 637.7 104.7 675.2 109.8C712.7 115 750.3 122 787.8 126.3C825.3 130.7 862.7 132.3 881.3 133.2L900 134L900 0L881.3 0C862.7 0 825.3 0 787.8 0C750.3 0 712.7 0 675.2 0C637.7 0 600.3 0 562.8 0C525.3 0 487.7 0 450.2 0C412.7 0 375.3 0 337.8 0C300.3 0 262.7 0 225.2 0C187.7 0 150.3 0 112.8 0C75.3 0 37.7 0 18.8 0L0 0Z" fill="#19273c"></path><path d="M0 66L18.8 71C37.7 76 75.3 86 112.8 89.8C150.3 93.7 187.7 91.3 225.2 86C262.7 80.7 300.3 72.3 337.8 74C375.3 75.7 412.7 87.3 450.2 90.8C487.7 94.3 525.3 89.7 562.8 89.3C600.3 89 637.7 93 675.2 89.2C712.7 85.3 750.3 73.7 787.8 67.8C825.3 62 862.7 62 881.3 62L900 62L900 0L881.3 0C862.7 0 825.3 0 787.8 0C750.3 0 712.7 0 675.2 0C637.7 0 600.3 0 562.8 0C525.3 0 487.7 0 450.2 0C412.7 0 375.3 0 337.8 0C300.3 0 262.7 0 225.2 0C187.7 0 150.3 0 112.8 0C75.3 0 37.7 0 18.8 0L0 0Z" fill="#172336"></path><path d="M0 48L18.8 46.5C37.7 45 75.3 42 112.8 40.2C150.3 38.3 187.7 37.7 225.2 35.5C262.7 33.3 300.3 29.7 337.8 28.3C375.3 27 412.7 28 450.2 33.8C487.7 39.7 525.3 50.3 562.8 53.7C600.3 57 637.7 53 675.2 48C712.7 43 750.3 37 787.8 35.8C825.3 34.7 862.7 38.3 881.3 40.2L900 42L900 0L881.3 0C862.7 0 825.3 0 787.8 0C750.3 0 712.7 0 675.2 0C637.7 0 600.3 0 562.8 0C525.3 0 487.7 0 450.2 0C412.7 0 375.3 0 337.8 0C300.3 0 262.7 0 225.2 0C187.7 0 150.3 0 112.8 0C75.3 0 37.7 0 18.8 0L0 0Z" fill="#141e30"></path></svg>