<svg id="visual" viewBox="0 0 900 450" width="900" height="450" xmlns="http://www.w3.org/2000/svg" xmlns:xlink="http://www.w3.org/1999/xlink" version="1.1"><rect x="0" y="0" width="900" height="450" fill="#0F0716"></rect><path d="M0 279L18.8 283C37.7 287 75.3 295 112.8 298C150.3 301 187.7 299 225.2 288.5C262.7 278 300.3 259 337.8 260.3C375.3 261.7 412.7 283.3 450.2 290.3C487.7 297.3 525.3 289.7 562.8 283.2C600.3 276.7 637.7 271.3 675.2 266.2C712.7 261 750.3 256 787.8 257C825.3 258 862.7 265 881.3 268.5L900 272L900 0L881.3 0C862.7 0 825.3 0 787.8 0C750.3 0 712.7 0 675.2 0C637.7 0 600.3 0 562.8 0C525.3 0 487.7 0 450.2 0C412.7 0 375.3 0 337.8 0C300.3 0 262.7 0 225.2 0C187.7 0 150.3 0 112.8 0C75.3 0 37.7 0 18.8 0L0 0Z" fill="#4b6cb7"></path><path d="M0 217L18.8 224.7C37.7 232.3 75.3 247.7 112.8 252.8C150.3 258 187.7 253 225.2 247.5C262.7 242 300.3 236 337.8 238C375.3 240 412.7 250 450.2 249.2C487.7 248.3 525.3 236.7 562.8 231.8C600.3 227 637.7 229 675.2 234.3C712.7 239.7 750.3 248.3 787.8 251C825.3 253.7 862.7 250.3 881.3 248.7L900 247L900 0L881.3 0C862.7 0 825.3 0 787.8 0C750.3 0 712.7 0 675.2 0C637.7 0 600.3 0 562.8 0C525.3 0 487.7 0 450.2 0C412.7 0 375.3 0 337.8 0C300.3 0 262.7 0 225.2 0C187.7 0 150.3 0 112.8 0C75.3 0 37.7 0 18.8 0L0 0Z" fill="#4260a3"></path><path d="M0 176L18.8 184.2C37.7 192.3 75.3 208.7 112.8 216.3C150.3 224 187.7 223 225.2 222.3C262.7 221.7 300.3 221.3 337.8 216.8C375.3 212.3 412.7 203.7 450.2 204C487.7 204.3 525.3 213.7 562.8 210.7C600.3 207.7 637.7 192.3 675.2 184C712.7 175.7 750.3 174.3 787.8 182C825.3 189.7 862.7 206.3 881.3 214.7L900 223L900 0L881.3 0C862.7 0 825.3 0 787.8 0C750.3 0 712.7 0 675.2 0C637.7 0 600.3 0 562.8 0C525.3 0 487.7 0 450.2 0C412.7 0 375.3 0 337.8 0C300.3 0 262.7 0 225.2 0C187.7 0 150.3 0 112.8 0C75.3 0 37.7 0 18.8 0L0 0Z" fill="#395490"></path><path d="M0 179L18.8 178.2C37.7 177.3 75.3 175.7 112.8 171.5C150.3 167.3 187.7 160.7 225.2 161.5C262.7 162.3 300.3 170.7 337.8 173.5C375.3 176.3 412.7 173.7 450.2 173.8C487.7 174 525.3 177 562.8 173C600.3 169 637.7 158 675.2 153.7C712.7 149.3 750.3 151.7 787.8 153C825.3 154.3 862.7 154.7 881.3 154.8L900 155L900 0L881.3 0C862.7 0 825.3 0 787.8 0C750.3 0 712.7 0 675.2 0C637.7 0 600.3 0 562.8 0C525.3 0 487.7 0 450.2 0C412.7 0 375.3 0 337.8 0C300.3 0 262.7 0 225.2 0C187.7 0 150.3 0 112.8 0C75.3 0 37.7 0 18.8 0L0 0Z" fill="#30497d"></path><path d="M0 121L18.8 121.5C37.7 122 75.3 123 112.8 123.5C150.3 124 187.7 124 225.2 120.7C262.7 117.3 300.3 110.7 337.8 109C375.3 107.3 412.7 110.7 450.2 114.2C487.7 117.7 525.3 121.3 562.8 124.2C600.3 127 637.7 129 675.2 128C712.7 127 750.3 123 787.8 117.5C825.3 112 862.7 105 881.3 101.5L900 98L900 0L881.3 0C862.7 0 825.3 0 787.8 0C750.3 0 712.7 0 675.2 0C637.7 0 600.3 0 562.8 0C525.3 0 487.7 0 450.2 0C412.7 0 375.3 0 337.8 0C300.3 0 262.7 0 225.2 0C187.7 0 150.3 0 112.8 0C75.3 0 37.7 0 18.8 0L0 0Z" fill="#283e6b"></path><path d="M0 98L18.8 98.3C37.7 98.7 75.3 99.3 112.8 96.7C150.3 94 187.7 88 225.2 87.8C262.7 87.7 300.3 93.3 337.8 92C375.3 90.7 412.7 82.3 450.2 79.5C487.7 76.7 525.3 79.3 562.8 79.2C600.3 79 637.7 76 675.2 77.7C712.7 79.3 750.3 85.7 787.8 84.3C825.3 83 862.7 74 881.3 69.5L900 65L900 0L881.3 0C862.7 0 825.3 0 787.8 0C750.3 0 712.7 0 675.2 0C637.7 0 600.3 0 562.8 0C525.3 0 487.7 0 450.2 0C412.7 0 375.3 0 337.8 0C300.3 0 262.7 0 225.2 0C187.7 0 150.3 0 112.8 0C75.3 0 37.7 0 18.8 0L0 0Z" fill="#203359"></path><path d="M0 26L18.8 27.2C37.7 28.3 75.3 30.7 112.8 32.3C150.3 34 187.7 35 225.2 35.8C262.7 36.7 300.3 37.3 337.8 38C375.3 38.7 412.7 39.3 450.2 42C487.7 44.7 525.3 49.3 562.8 50.5C600.3 51.7 637.7 49.3 675.2 48.7C712.7 48 750.3 49 787.8 46.2C825.3 43.3 862.7 36.7 881.3 33.3L900 30L900 0L881.3 0C862.7 0 825.3 0 787.8 0C750.3 0 712.7 0 675.2 0C637.7 0 600.3 0 562.8 0C525.3 0 487.7 0 450.2 0C412.7 0 375.3 0 337.8 0C300.3 0 262.7 0 225.2 0C187.7 0 150.3 0 112.8 0C75.3 0 37.7 0 18.8 0L0 0Z" fill="#182848"></path></svg>