<svg id="visual" viewBox="0 0 900 600" width="900" height="600" xmlns="http://www.w3.org/2000/svg" xmlns:xlink="http://www.w3.org/1999/xlink" version="1.1"><rect x="0" y="0" width="900" height="600" fill="#0F0716"></rect><path d="M0 208L21.5 214C43 220 86 232 128.8 225.2C171.7 218.3 214.3 192.7 257.2 186.8C300 181 343 195 385.8 194.8C428.7 194.7 471.3 180.3 514.2 182.2C557 184 600 202 642.8 210.7C685.7 219.3 728.3 218.7 771.2 213.2C814 207.7 857 197.3 878.5 192.2L900 187L900 0L878.5 0C857 0 814 0 771.2 0C728.3 0 685.7 0 642.8 0C600 0 557 0 514.2 0C471.3 0 428.7 0 385.8 0C343 0 300 0 257.2 0C214.3 0 171.7 0 128.8 0C86 0 43 0 21.5 0L0 0Z" fill="#4facf7"></path><path d="M0 128L21.5 133.3C43 138.7 86 149.3 128.8 153.7C171.7 158 214.3 156 257.2 156C300 156 343 158 385.8 162.5C428.7 167 471.3 174 514.2 179.3C557 184.7 600 188.3 642.8 181C685.7 173.7 728.3 155.3 771.2 144.3C814 133.3 857 129.7 878.5 127.8L900 126L900 0L878.5 0C857 0 814 0 771.2 0C728.3 0 685.7 0 642.8 0C600 0 557 0 514.2 0C471.3 0 428.7 0 385.8 0C343 0 300 0 257.2 0C214.3 0 171.7 0 128.8 0C86 0 43 0 21.5 0L0 0Z" fill="#1394fe"></path><path d="M0 111L21.5 107.8C43 104.7 86 98.3 128.8 99.8C171.7 101.3 214.3 110.7 257.2 121.7C300 132.7 343 145.3 385.8 146.2C428.7 147 471.3 136 514.2 136C557 136 600 147 642.8 145C685.7 143 728.3 128 771.2 123.7C814 119.3 857 125.7 878.5 128.8L900 132L900 0L878.5 0C857 0 814 0 771.2 0C728.3 0 685.7 0 642.8 0C600 0 557 0 514.2 0C471.3 0 428.7 0 385.8 0C343 0 300 0 257.2 0C214.3 0 171.7 0 128.8 0C86 0 43 0 21.5 0L0 0Z" fill="#0079ff"></path><path d="M0 59L21.5 64C43 69 86 79 128.8 79.3C171.7 79.7 214.3 70.3 257.2 71.8C300 73.3 343 85.7 385.8 85.3C428.7 85 471.3 72 514.2 74.3C557 76.7 600 94.3 642.8 94.3C685.7 94.3 728.3 76.7 771.2 74.3C814 72 857 85 878.5 91.5L900 98L900 0L878.5 0C857 0 814 0 771.2 0C728.3 0 685.7 0 642.8 0C600 0 557 0 514.2 0C471.3 0 428.7 0 385.8 0C343 0 300 0 257.2 0C214.3 0 171.7 0 128.8 0C86 0 43 0 21.5 0L0 0Z" fill="#2856ff"></path><path d="M0 71L21.5 64.5C43 58 86 45 128.8 37.5C171.7 30 214.3 28 257.2 27.7C300 27.3 343 28.7 385.8 30.2C428.7 31.7 471.3 33.3 514.2 36.7C557 40 600 45 642.8 43.5C685.7 42 728.3 34 771.2 37.2C814 40.3 857 54.7 878.5 61.8L900 69L900 0L878.5 0C857 0 814 0 771.2 0C728.3 0 685.7 0 642.8 0C600 0 557 0 514.2 0C471.3 0 428.7 0 385.8 0C343 0 300 0 257.2 0C214.3 0 171.7 0 128.8 0C86 0 43 0 21.5 0L0 0Z" fill="#6600ff"></path></svg>