<svg id="visual" viewBox="0 0 960 540" width="960" height="540" xmlns="http://www.w3.org/2000/svg" xmlns:xlink="http://www.w3.org/1999/xlink" version="1.1"><rect width="960" height="540" fill="#0F0716"></rect><g><g transform="translate(867 56)"><path d="M0 -17L14.7 -8.5L14.7 8.5L0 17L-14.7 8.5L-14.7 -8.5Z" fill="none" stroke="#ff4545" stroke-width="1"></path></g><g transform="translate(510 519)"><path d="M0 -5L4.3 -2.5L4.3 2.5L0 5L-4.3 2.5L-4.3 -2.5Z" fill="none" stroke="#ff4545" stroke-width="1"></path></g><g transform="translate(400 496)"><path d="M0 -13L11.3 -6.5L11.3 6.5L0 13L-11.3 6.5L-11.3 -6.5Z" fill="none" stroke="#ff4545" stroke-width="1"></path></g><g transform="translate(639 45)"><path d="M0 -3L2.6 -1.5L2.6 1.5L0 3L-2.6 1.5L-2.6 -1.5Z" stroke="#ff4545" fill="none" stroke-width="1"></path></g><g transform="translate(584 113)"><path d="M0 -8L6.9 -4L6.9 4L0 8L-6.9 4L-6.9 -4Z" stroke="#ff4545" fill="none" stroke-width="1"></path></g><g transform="translate(514 169)"><path d="M0 -4L3.5 -2L3.5 2L0 4L-3.5 2L-3.5 -2Z" stroke="#ff4545" fill="none" stroke-width="1"></path></g><g transform="translate(54 329)"><path d="M0 -6L5.2 -3L5.2 3L0 6L-5.2 3L-5.2 -3Z" stroke="#ff4545" fill="none" stroke-width="1"></path></g><g transform="translate(444 357)"><path d="M0 -15L13 -7.5L13 7.5L0 15L-13 7.5L-13 -7.5Z" stroke="#ff4545" fill="none" stroke-width="1"></path></g><g transform="translate(532 347)"><path d="M0 -15L13 -7.5L13 7.5L0 15L-13 7.5L-13 -7.5Z" stroke="#ff4545" fill="none" stroke-width="1"></path></g><g transform="translate(791 200)"><path d="M0 -3L2.6 -1.5L2.6 1.5L0 3L-2.6 1.5L-2.6 -1.5Z" stroke="#ff4545" fill="none" stroke-width="1"></path></g><g transform="translate(20 31)"><path d="M0 -9L7.8 -4.5L7.8 4.5L0 9L-7.8 4.5L-7.8 -4.5Z" stroke="#ff4545" fill="none" stroke-width="1"></path></g><g transform="translate(70 471)"><path d="M0 -12L10.4 -6L10.4 6L0 12L-10.4 6L-10.4 -6Z" stroke="#ff4545" fill="none" stroke-width="1"></path></g><g transform="translate(708 87)"><path d="M0 -2L1.7 -1L1.7 1L0 2L-1.7 1L-1.7 -1Z" stroke="#ff4545" fill="none" stroke-width="1"></path></g></g></svg>