<svg id="visual" viewBox="0 0 900 450" width="900" height="450" xmlns="http://www.w3.org/2000/svg" xmlns:xlink="http://www.w3.org/1999/xlink" version="1.1"><path d="M0 69L12.5 80.2C25 91.3 50 113.7 75 106.2C100 98.7 125 61.3 150 62.8C175 64.3 200 104.7 225 123.3C250 142 275 139 300 128.5C325 118 350 100 375 82.8C400 65.7 425 49.3 450 39.7C475 30 500 27 525 36.7C550 46.3 575 68.7 600 87.3C625 106 650 121 675 121.8C700 122.7 725 109.3 750 91.3C775 73.3 800 50.7 825 49.8C850 49 875 70 887.5 80.5L900 91L900 0L887.5 0C875 0 850 0 825 0C800 0 775 0 750 0C725 0 700 0 675 0C650 0 625 0 600 0C575 0 550 0 525 0C500 0 475 0 450 0C425 0 400 0 375 0C350 0 325 0 300 0C275 0 250 0 225 0C200 0 175 0 150 0C125 0 100 0 75 0C50 0 25 0 12.5 0L0 0Z" fill="#0F071600"></path><path d="M0 78L12.5 93C25 108 50 138 75 135C100 132 125 96 150 93C175 90 200 120 225 132.7C250 145.3 275 140.7 300 133.8C325 127 350 118 375 104.5C400 91 425 73 450 59.5C475 46 500 37 525 45.3C550 53.7 575 79.3 600 100.3C625 121.3 650 137.7 675 143.7C700 149.7 725 145.3 750 129.7C775 114 800 87 825 83.2C850 79.3 875 98.7 887.5 108.3L900 118L900 89L887.5 78.5C875 68 850 47 825 47.8C800 48.7 775 71.3 750 89.3C725 107.3 700 120.7 675 119.8C650 119 625 104 600 85.3C575 66.7 550 44.3 525 34.7C500 25 475 28 450 37.7C425 47.3 400 63.7 375 80.8C350 98 325 116 300 126.5C275 137 250 140 225 121.3C200 102.7 175 62.3 150 60.8C125 59.3 100 96.7 75 104.2C50 111.7 25 89.3 12.5 78.2L0 67Z" fill="#0d0513"></path><path d="M0 168L12.5 172.5C25 177 50 186 75 189.7C100 193.3 125 191.7 150 185.7C175 179.7 200 169.3 225 168.7C250 168 275 177 300 174C325 171 350 156 375 159.7C400 163.3 425 185.7 450 190.8C475 196 500 184 525 172C550 160 575 148 600 146.5C625 145 650 154 675 161.5C700 169 725 175 750 179.5C775 184 800 187 825 199.8C850 212.7 875 235.3 887.5 246.7L900 258L900 116L887.5 106.3C875 96.7 850 77.3 825 81.2C800 85 775 112 750 127.7C725 143.3 700 147.7 675 141.7C650 135.7 625 119.3 600 98.3C575 77.3 550 51.7 525 43.3C500 35 475 44 450 57.5C425 71 400 89 375 102.5C350 116 325 125 300 131.8C275 138.7 250 143.3 225 130.7C200 118 175 88 150 91C125 94 100 130 75 133C50 136 25 106 12.5 91L0 76Z" fill="#0d0614"></path><path d="M0 186L12.5 193.5C25 201 50 216 75 223.5C100 231 125 231 150 226.5C175 222 200 213 225 215.2C250 217.3 275 230.7 300 237.3C325 244 350 244 375 247C400 250 425 256 450 249.3C475 242.7 500 223.3 525 221.2C550 219 575 234 600 240.7C625 247.3 650 245.7 675 236.7C700 227.7 725 211.3 750 206.8C775 202.3 800 209.7 825 225.3C850 241 875 265 887.5 277L900 289L900 256L887.5 244.7C875 233.3 850 210.7 825 197.8C800 185 775 182 750 177.5C725 173 700 167 675 159.5C650 152 625 143 600 144.5C575 146 550 158 525 170C500 182 475 194 450 188.8C425 183.7 400 161.3 375 157.7C350 154 325 169 300 172C275 175 250 166 225 166.7C200 167.3 175 177.7 150 183.7C125 189.7 100 191.3 75 187.7C50 184 25 175 12.5 170.5L0 166Z" fill="#0e0614"></path><path d="M0 208L12.5 216.3C25 224.7 50 241.3 75 251.2C100 261 125 264 150 258C175 252 200 237 225 236.2C250 235.3 275 248.7 300 259.2C325 269.7 350 277.3 375 282.7C400 288 425 291 450 281.2C475 271.3 500 248.7 525 247.8C550 247 575 268 600 277C625 286 650 283 675 272.5C700 262 725 244 750 237.3C775 230.7 800 235.3 825 248.8C850 262.3 875 284.7 887.5 295.8L900 307L900 287L887.5 275C875 263 850 239 825 223.3C800 207.7 775 200.3 750 204.8C725 209.3 700 225.7 675 234.7C650 243.7 625 245.3 600 238.7C575 232 550 217 525 219.2C500 221.3 475 240.7 450 247.3C425 254 400 248 375 245C350 242 325 242 300 235.3C275 228.7 250 215.3 225 213.2C200 211 175 220 150 224.5C125 229 100 229 75 221.5C50 214 25 199 12.5 191.5L0 184Z" fill="#0e0615"></path><path d="M0 222L12.5 232.5C25 243 50 264 75 276C100 288 125 291 150 286.5C175 282 200 270 225 269.2C250 268.3 275 278.7 300 289.2C325 299.7 350 310.3 375 311.2C400 312 425 303 450 288C475 273 500 252 525 257.2C550 262.3 575 293.7 600 307.2C625 320.7 650 316.3 675 299.8C700 283.3 725 254.7 750 245.7C775 236.7 800 247.3 825 260.8C850 274.3 875 290.7 887.5 298.8L900 307L900 305L887.5 293.8C875 282.7 850 260.3 825 246.8C800 233.3 775 228.7 750 235.3C725 242 700 260 675 270.5C650 281 625 284 600 275C575 266 550 245 525 245.8C500 246.7 475 269.3 450 279.2C425 289 400 286 375 280.7C350 275.3 325 267.7 300 257.2C275 246.7 250 233.3 225 234.2C200 235 175 250 150 256C125 262 100 259 75 249.2C50 239.3 25 222.7 12.5 214.3L0 206Z" fill="#0f0716"></path><path d="M0 267L12.5 278.2C25 289.3 50 311.7 75 323.7C100 335.7 125 337.3 150 326.2C175 315 200 291 225 284.2C250 277.3 275 287.7 300 303.3C325 319 350 340 375 341.5C400 343 425 325 450 305.5C475 286 500 265 525 271.8C550 278.7 575 313.3 600 329.8C625 346.3 650 344.7 675 328.8C700 313 725 283 750 274C775 265 800 277 825 291.3C850 305.7 875 322.3 887.5 330.7L900 339L900 305L887.5 296.8C875 288.7 850 272.3 825 258.8C800 245.3 775 234.7 750 243.7C725 252.7 700 281.3 675 297.8C650 314.3 625 318.7 600 305.2C575 291.7 550 260.3 525 255.2C500 250 475 271 450 286C425 301 400 310 375 309.2C350 308.3 325 297.7 300 287.2C275 276.7 250 266.3 225 267.2C200 268 175 280 150 284.5C125 289 100 286 75 274C50 262 25 241 12.5 230.5L0 220Z" fill="#130a1a"></path><path d="M0 289L12.5 296.5C25 304 50 319 75 332.5C100 346 125 358 150 349C175 340 200 310 225 304C250 298 275 316 300 329.5C325 343 350 352 375 349.8C400 347.7 425 334.3 450 319.3C475 304.3 500 287.7 525 292.2C550 296.7 575 322.3 600 335.2C625 348 650 348 675 334.5C700 321 725 294 750 288.7C775 283.3 800 299.7 825 313.8C850 328 875 340 887.5 346L900 352L900 337L887.5 328.7C875 320.3 850 303.7 825 289.3C800 275 775 263 750 272C725 281 700 311 675 326.8C650 342.7 625 344.3 600 327.8C575 311.3 550 276.7 525 269.8C500 263 475 284 450 303.5C425 323 400 341 375 339.5C350 338 325 317 300 301.3C275 285.7 250 275.3 225 282.2C200 289 175 313 150 324.2C125 335.3 100 333.7 75 321.7C50 309.7 25 287.3 12.5 276.2L0 265Z" fill="#191023"></path><path d="M0 316L12.5 319C25 322 50 328 75 341.5C100 355 125 376 150 372.3C175 368.7 200 340.3 225 333.7C250 327 275 342 300 351.7C325 361.3 350 365.7 375 363.3C400 361 425 352 450 339.3C475 326.7 500 310.3 525 317.2C550 324 575 354 600 363C625 372 650 360 675 345.7C700 331.3 725 314.7 750 316.2C775 317.7 800 337.3 825 351.7C850 366 875 375 887.5 379.5L900 384L900 350L887.5 344C875 338 850 326 825 311.8C800 297.7 775 281.3 750 286.7C725 292 700 319 675 332.5C650 346 625 346 600 333.2C575 320.3 550 294.7 525 290.2C500 285.7 475 302.3 450 317.3C425 332.3 400 345.7 375 347.8C350 350 325 341 300 327.5C275 314 250 296 225 302C200 308 175 338 150 347C125 356 100 344 75 330.5C50 317 25 302 12.5 294.5L0 287Z" fill="#1e142d"></path><path d="M0 316L12.5 325.8C25 335.7 50 355.3 75 368.8C100 382.3 125 389.7 150 379.2C175 368.7 200 340.3 225 338.8C250 337.3 275 362.7 300 377.7C325 392.7 350 397.3 375 397.3C400 397.3 425 392.7 450 375.3C475 358 500 328 525 329.5C550 331 575 364 600 372.3C625 380.7 650 364.3 675 355.3C700 346.3 725 344.7 750 349.2C775 353.7 800 364.3 825 372.7C850 381 875 387 887.5 390L900 393L900 382L887.5 377.5C875 373 850 364 825 349.7C800 335.3 775 315.7 750 314.2C725 312.7 700 329.3 675 343.7C650 358 625 370 600 361C575 352 550 322 525 315.2C500 308.3 475 324.7 450 337.3C425 350 400 359 375 361.3C350 363.7 325 359.3 300 349.7C275 340 250 325 225 331.7C200 338.3 175 366.7 150 370.3C125 374 100 353 75 339.5C50 326 25 320 12.5 317L0 314Z" fill="#241736"></path><path d="M0 370L12.5 374.5C25 379 50 388 75 394C100 400 125 403 150 400C175 397 200 388 225 394.8C250 401.7 275 424.3 300 433.3C325 442.3 350 437.7 375 433.2C400 428.7 425 424.3 450 414.7C475 405 500 390 525 393.7C550 397.3 575 419.7 600 418.2C625 416.7 650 391.3 675 382.3C700 373.3 725 380.7 750 386.7C775 392.7 800 397.3 825 403.3C850 409.3 875 416.7 887.5 420.3L900 424L900 391L887.5 388C875 385 850 379 825 370.7C800 362.3 775 351.7 750 347.2C725 342.7 700 344.3 675 353.3C650 362.3 625 378.7 600 370.3C575 362 550 329 525 327.5C500 326 475 356 450 373.3C425 390.7 400 395.3 375 395.3C350 395.3 325 390.7 300 375.7C275 360.7 250 335.3 225 336.8C200 338.3 175 366.7 150 377.2C125 387.7 100 380.3 75 366.8C50 353.3 25 333.7 12.5 323.8L0 314Z" fill="#2a1b40"></path><path d="M0 451L12.5 451C25 451 50 451 75 451C100 451 125 451 150 451C175 451 200 451 225 451C250 451 275 451 300 451C325 451 350 451 375 451C400 451 425 451 450 451C475 451 500 451 525 451C550 451 575 451 600 451C625 451 650 451 675 451C700 451 725 451 750 451C775 451 800 451 825 451C850 451 875 451 887.5 451L900 451L900 422L887.5 418.3C875 414.7 850 407.3 825 401.3C800 395.3 775 390.7 750 384.7C725 378.7 700 371.3 675 380.3C650 389.3 625 414.7 600 416.2C575 417.7 550 395.3 525 391.7C500 388 475 403 450 412.7C425 422.3 400 426.7 375 431.2C350 435.7 325 440.3 300 431.3C275 422.3 250 399.7 225 392.8C200 386 175 395 150 398C125 401 100 398 75 392C50 386 25 377 12.5 372.5L0 368Z" fill="#311e4a"></path></svg>